<svg width="360" height="980" viewBox="0 0 360 980" fill="none" xmlns="http://www.w3.org/2000/svg">
<path d="M65.6295 128.433L0.0488973 128.433L0.0489129 307.451L219.14 336.892L0.049982 366.025L0.0499877 430.582L58.5108 423.35C43.5344 430.807 0.04999 457.238 0.0499951 515.404C0.0244454 515.787 0.0500007 580.049 0.0500007 580.049L319.393 580.297L0.0500049 627.351L-2.34381e-05 711.899L330.883 760.578L0.0478885 760.552L0.0478956 841.47L185.906 870.642L0.0500286 899.056L0.0500357 980L359.774 980L359.774 916.258L186.388 916.258L359.77 887.263L359.77 853.376L186.388 824.788L359.77 824.788L359.77 701.905L304.418 694.448L304.418 644.974L359.77 637.543L359.846 516.9L359.846 516.802L359.77 516.802L359.77 516.727L359.77 516.652L243.003 516.652L240.807 501.862L359.846 471.243L359.846 471.168L359.846 408.915L359.846 408.842L359.77 408.867L359.77 408.757L359.77 408.682L220.251 448.862C204.898 428.5 165.908 405.509 128.608 411.628L128.584 411.628C129.089 411.555 360 373.702 360 373.702L359.77 299.486L33.7095 248.774L359.771 248.774L359.771 128.43L295.074 128.43L295.074 185.555L212.574 185.555L212.574 128.43L146.892 128.43L146.892 185.555L65.6295 185.555L65.6295 128.433ZM247.374 686.94L93.5852 669.439L247.374 651.267L247.374 686.94ZM176.363 501.655C178.788 506.56 180 511.676 180 516.655L64.2914 516.655C64.2914 516.568 64.268 516.468 64.268 516.345C64.2424 511.353 65.8074 474.134 121.514 474.134C150.655 474.134 169.015 486.792 176.363 501.655ZM295.024 -6.44795e-06L359.72 -7.86193e-06L359.72 117.398L-7.54111e-05 117.398L-8.0937e-05 54.1883L295.024 54.1883L295.024 -6.44795e-06Z" fill="url(#paint0_linear_2101_13)"/>
<defs>
<linearGradient id="paint0_linear_2101_13" x1="-4.28372e-05" y1="490" x2="360" y2="490" gradientUnits="userSpaceOnUse">
<stop stop-color="white" stop-opacity="0.05"/>
<stop offset="1" stop-color="white" stop-opacity="0"/>
</linearGradient>
</defs>
</svg>
